:SAMPLES-PER-SECOND 30
:FULLY-SPECIFIED
:DEGREES
371
root  -5.17174 40.9823 0.822177 -179.139 -81.8367 -178.76
RightUpLeg  -0.0310511 -1.19867 -2.53944
RightLeg  -2.16326 -13.4965 0.412993
RightFoot  2.05803 -0.42167 3.7073
RightToes  -3.11842e-008 1.75238e-005 3.56266e-009
Spine  -2.14643 -2.65154 -3.4199
Spine1  0.366921 -3.51214 5.31687
HEad  -10.2993 1.13689 5.30253
LeftShoulder1  2.60788 -6.55327 -19.4545
LeftArm  -24.2816 -24.0869 -36.8561
LeftForeArm  17.319 -73.1635 -40.7389
LeftHand  -0.297732 0.136747 6.62406
RightShoulder  2.39346 5.58824 19.9528
RightArm  -28.6619 15.1979 17.2732
RightForeArm  8.46073 75.8261 57.7361
RightHand  -0.222874 6.28823 -2.55486
LeftUpLeg  3.9451 1.0607 1.6581
LeftLeg  -5.27862 22.4768 -2.62104
LeftFoot  -0.0540615 0.293853 -2.96991
LeftToes  4.78904e-008 1.4679e-008 1.35657e-009
372
root  -5.28977 40.9762 0.914526 178.93 -81.2798 -176.601
RightUpLeg  0.0445367 -1.06722 -2.38826
RightLeg  -2.58714 -13.2339 0.577728
RightFoot  2.18512 -0.460682 4.00801
RightToes  -3.11842e-008 1.75238e-005 3.56266e-009
Spine  -1.07344 -4.10077 -5.17773
Spine1  -1.75202 -5.22349 7.77928
HEad  -10.8877 3.24527 5.12311
LeftShoulder1  2.59183 -6.95821 -18.1859
LeftArm  -21.9922 -30.3454 -35.7189
LeftForeArm  24.1495 -74.2578 -43.5837
LeftHand  -0.358053 -0.524008 7.12705
RightShoulder  2.11574 4.85978 18.8195
RightArm  -31.2115 12.9644 14.5565
RightForeArm  18.6264 76.9919 67.0913
RightHand  -0.158753 6.5067 -1.88851
LeftUpLeg  3.74838 1.24506 1.8444
LeftLeg  -4.82401 22.757 -2.49295
LeftFoot  -0.394162 0.260449 -2.69518
LeftToes  4.78904e-008 1.4679e-008 1.35657e-009
373
root  -5.40149 40.9671 0.999343 177.737 -80.2652 -175.368
RightUpLeg  0.175914 -0.961439 -2.27683
RightLeg  -2.89882 -12.5701 0.663434
RightFoot  2.26779 -0.500172 4.31896
RightToes  -3.11842e-008 1.75238e-005 3.56266e-009
Spine  0.662237 -5.22386 -7.13406
Spine1  -4.17735 -6.59211 10.6594
HEad  -11.8355 5.80568 4.37944
LeftShoulder1  2.37284 -6.67969 -16.6115
LeftArm  -18.778 -35.7895 -35.9576
LeftForeArm  33.0952 -75.8766 -49.7414
LeftHand  -0.417643 -0.668863 8.13354
RightShoulder  1.77265 3.98879 17.0831
RightArm  -34.1711 10.5353 12.8847
RightForeArm  27.2784 77.6051 75.1674
RightHand  -0.129818 6.49314 -1.60818
LeftUpLeg  3.66775 1.54576 2.02302
LeftLeg  -4.13016 23.2824 -2.41124
LeftFoot  -0.863659 0.246712 -2.63408
LeftToes  4.78904e-008 1.4679e-008 1.35657e-009
374
root  -5.49563 40.9594 1.07214 177.447 -79.0255 -175.014
RightUpLeg  0.23939 -0.788071 -2.15153
RightLeg  -3.29067 -11.8679 0.636044
RightFoot  2.38607 -0.508115 4.35424
RightToes  -3.11842e-008 1.75238e-005 3.56266e-009
Spine  2.22169 -6.1527 -8.40431
Spine1  -6.23255 -7.60718 12.5822
HEad  -12.5494 8.79106 3.59239
LeftShoulder1  2.2514 -6.74766 -15.1274
LeftArm  -15.2665 -39.3775 -35.914
LeftForeArm  47.0735 -77.8224 -62.0078
LeftHand  -0.503992 -0.874232 9.40649
RightShoulder  1.59493 3.48504 16.1452
RightArm  -37.0448 7.06412 10.9788
RightForeArm  37.5464 77.9785 84.304
RightHand  -0.191827 6.81448 -2.17278
LeftUpLeg  3.78071 1.78206 2.09027
LeftLeg  -3.9143 24.1025 -2.54421
LeftFoot  -1.08592 0.201717 -2.17448
LeftToes  4.78904e-008 1.4679e-008 1.35657e-009
375
root  -5.60271 40.9573 1.15242 176.719 -78.2099 -174.069
RightUpLeg  0.409981 -0.755204 -2.04772
RightLeg  -4.00498 -11.4726 0.874871
RightFoot  2.63811 -0.513685 4.33412
RightToes  -3.11842e-008 1.75238e-005 3.56266e-009
Spine  3.30127 -7.11489 -8.92348
Spine1  -7.72315 -8.59378 13.94
HEad  -13.6891 11.1757 1.93483
LeftShoulder1  2.0835 -6.52845 -13.8299
LeftArm  -10.5546 -41.0187 -37.3031
LeftForeArm  73.0942 -79.33 -84.155
LeftHand  -0.689278 -1.79187 11.3589
RightShoulder  1.3392 2.58667 15.247
RightArm  -38.9856 2.81491 10.1341
RightForeArm  51.3914 77.9516 97.4576
RightHand  -0.265957 7.0897 -2.82052
LeftUpLeg  3.57816 1.94936 2.19994
LeftLeg  -3.41128 24.6099 -2.44065
LeftFoot  -1.43301 0.169349 -1.85532
LeftToes  4.78904e-008 1.4679e-008 1.35657e-009
376
root  -5.70708 40.9583 1.19999 177.529 -77.5274 -174.662
RightUpLeg  0.208146 -0.860696 -2.22971
RightLeg  -3.97897 -10.8862 0.869028
RightFoot  2.5849 -0.535678 4.52767
RightToes  -3.11842e-008 1.75238e-005 3.56266e-009
Spine  3.88844 -7.92943 -9.61718
Spine1  -8.45337 -9.46756 15.166
HEad  -15.2566 13.2992 0.227194
LeftShoulder1  2.16297 -6.68973 -14.3268
LeftArm  -6.39303 -40.9782 -37.5657
LeftForeArm  109.835 -78.8207 -113.619
LeftHand  -0.779217 -3.9055 10.0276
RightShoulder  1.19012 2.00926 14.8295
RightArm  -40.4484 -2.40899 9.75286
RightForeArm  65.8236 77.0008 113.063
RightHand  -0.31862 7.38201 -3.25043
LeftUpLeg  3.58738 1.86006 1.99015
LeftLeg  -3.48935 25.2757 -2.53342
LeftFoot  -1.49805 0.157513 -1.72781
LeftToes  4.78904e-008 1.4679e-008 1.35657e-009
377
root  -5.78694 40.9534 1.22685 177.756 -76.9381 -174.979
RightUpLeg  0.232284 -0.798476 -2.26351
RightLeg  -3.77352 -10.4163 0.682173
RightFoot  2.48174 -0.551257 4.68472
RightToes  -3.11842e-008 1.75238e-005 3.56266e-009
Spine  3.9457 -8.77951 -10.0617
Spine1  -7.2994 -10.5679 15.6975
HEad  -17.519 15.4619 -1.8545
LeftShoulder1  2.07981 -6.11225 -14.7317
LeftArm  -3.48497 -39.2563 -38.6249
LeftForeArm  143.301 -75.6893 -137.264
LeftHand  -0.865701 -6.96028 8.47258
RightShoulder  1.07434 1.39187 15.1937
RightArm  -41.6292 -6.89568 10.3523
RightForeArm  80.1331 75.1833 126.669
RightHand  -0.21716 7.52545 -2.30459
LeftUpLeg  4.00715 1.90969 1.91373
LeftLeg  -3.77872 25.699 -2.72988
LeftFoot  -1.53044 0.160182 -1.79011
LeftToes  4.78904e-008 1.4679e-008 1.35657e-009
378
root  -5.83143 40.9402 1.24891 177.813 -76.3494 -175.113
RightUpLeg  0.0663566 -0.645493 -2.22125
RightLeg  -3.29835 -9.98305 0.418853
RightFoot  2.22816 -0.55872 4.81994
RightToes  -3.11842e-008 1.75238e-005 3.56266e-009
Spine  4.85291 -9.24816 -10.4257
Spine1  -8.09824 -11.1309 16.9164
HEad  -18.5591 16.9185 -3.96869
LeftShoulder1  2.50956 -7.02937 -17.1901
LeftArm  -2.54623 -33.6585 -37.6841
LeftForeArm  163.781 -70.5438 -151.812
LeftHand  -0.799984 -9.0417 6.79014
RightShoulder  0.972444 1.03044 14.6713
RightArm  -41.9861 -11.2337 12.3314
RightForeArm  92.1192 72.9801 136.326
RightHand  -0.35888 8.01432 -3.47939
LeftUpLeg  4.26438 1.93723 1.85296
LeftLeg  -3.8448 26.1751 -2.78601
LeftFoot  -1.66008 0.167131 -1.91184
LeftToes  4.78904e-008 1.4679e-008 1.35657e-009
379
root  -5.88765 40.9239 1.25982 177.988 -75.5618 -175.55
RightUpLeg  0.0964182 -0.645765 -2.27258
RightLeg  -2.83209 -9.15006 0.218779
RightFoot  1.91415 -0.538015 4.73976
RightToes  -3.11842e-008 1.75238e-005 3.56266e-009
Spine  4.84998 -9.57614 -10.023
Spine1  -7.48467 -11.5181 16.419
HEad  -19.7337 18.2681 -4.95341
LeftShoulder1  2.58775 -6.97755 -18.1093
LeftArm  -2.83709 -27.0677 -38.6393
LeftForeArm  172.49 -65.6268 -158.686
LeftHand  -0.635715 -9.73059 5.26513
RightShoulder  1.03492 1.13429 15.626
RightArm  -42.3946 -14.3091 13.435
RightForeArm  98.3225 70.6812 142.82
RightHand  -0.346213 8.04423 -3.35344
LeftUpLeg  4.89556 1.82015 1.62776
LeftLeg  -4.27485 27.1053 -2.889
LeftFoot  -1.69508 0.170887 -1.97626
LeftToes  4.78904e-008 1.4679e-008 1.35657e-009
380
root  -5.9478 40.9106 1.27044 177.864 -74.3145 -175.787
RightUpLeg  0.332422 -0.549021 -2.23315
RightLeg  -2.6779 -7.9492 0.0114731
RightFoot  1.77456 -0.541058 4.80826
RightToes  -3.11842e-008 1.75238e-005 3.56266e-009
Spine  4.39915 -9.53574 -9.28767
Spine1  -6.19085 -11.564 15.4928
HEad  -20.7006 18.9535 -5.34873
LeftShoulder1  2.57923 -6.62184 -18.9617
LeftArm  -5.66411 -19.724 -39.6987
LeftForeArm  175.781 -61.9569 -162.038
LeftHand  -0.554073 -10.0907 4.54925
RightShoulder  1.06619 1.12934 16.3891
RightArm  -42.4981 -15.049 15.3677
RightForeArm  102.11 69.0375 146.36
RightHand  -0.294172 7.71661 -2.95716
LeftUpLeg  5.65218 1.86902 1.52352
LeftLeg  -4.59757 28.2754 -3.07657
LeftFoot  -1.84255 0.18287 -2.16032
LeftToes  4.78904e-008 1.4679e-008 1.35657e-009
381
root  -5.99127 40.9019 1.25206 177.664 -72.9393 -175.889
RightUpLeg  0.510317 -0.393466 -2.09245
RightLeg  -2.60149 -6.72672 -0.175289
RightFoot  1.71016 -0.534445 4.77081
RightToes  -3.11842e-008 1.75238e-005 3.56266e-009
Spine  4.06974 -8.90829 -8.34422
Spine1  -5.72046 -10.8772 14.5564
HEad  -20.252 18.7798 -4.7732
LeftShoulder1  2.60429 -6.30733 -20.0977
LeftArm  -10.129 -13.684 -39.8775
LeftForeArm  174.406 -60.4509 -162.934
LeftHand  -0.537936 -10.0075 4.45298
RightShoulder  1.15839 1.38988 17.103
RightArm  -42.416 -15.3292 16.4255
RightForeArm  105.975 67.749 148.84
RightHand  -0.432201 8.13575 -4.07832
LeftUpLeg  6.29561 2.05404 1.55988
LeftLeg  -4.81526 29.4344 -3.3313
LeftFoot  -1.99722 0.189835 -2.25749
LeftToes  4.78904e-008 1.4679e-008 1.35657e-009
